<svg xmlns="http://www.w3.org/2000/svg"  viewBox="0 0 80 80" width="80px" height="80px" baseProfile="basic"><path fill="#dbf2ff" d="M76,4.5H24c-1.933,0-3.5,1.567-3.5,3.5v14.5h59V8C79.5,6.067,77.933,4.5,76,4.5z"/><path fill="#7496c4" d="M20.5,57.532V72c0,1.933,1.567,3.5,3.5,3.5h52c1.933,0,3.5-1.567,3.5-3.5V57.532H20.5z"/><path fill="#b5ddf5" d="M20.5,22.5h59V40h-59V22.5z"/><path fill="#8bb7f0" d="M20.5,40l59,0v17.534h-59V40z"/><path fill="#8bb7f0" d="M36,59.5H4c-1.933,0-3.5-1.567-3.5-3.5V24c0-1.933,1.567-3.5,3.5-3.5h32c1.933,0,3.5,1.567,3.5,3.5	v32C39.5,57.933,37.933,59.5,36,59.5z"/><path fill="#4e7ab5" d="M36,60H4c-2.206,0-4-1.794-4-4V24c0-2.206,1.794-4,4-4h32c2.206,0,4,1.794,4,4v32	C40,58.206,38.206,60,36,60z M4,21c-1.654,0-3,1.346-3,3v32c0,1.654,1.346,3,3,3h32c1.654,0,3-1.346,3-3V24c0-1.654-1.346-3-3-3H4z"/><path fill="#4e7ab5" d="M33.821,29.125h-1.262h-3.863h-0.81l-0.169,0.792l-2.125,9.986l-2.36-10.007l-0.182-0.77h-0.792	H17.94h-0.792l-0.182,0.77l-2.466,10.452l-2.219-10.43l-0.168-0.792h-0.81H7.441H6.179l0.288,1.228l4.629,19.75l0.181,0.772h0.793	h4.645h0.802l0.174-0.783l2.407-10.806l2.409,10.806l0.174,0.782h0.802h4.446h0.793l0.181-0.772l4.629-19.75L33.821,29.125	L33.821,29.125z"/><path fill="#fff" d="M28.696,30.125l-3.053,14.346l-3.383-14.346H17.94l-3.49,14.791l-3.146-14.791H7.441l4.629,19.75	h4.645l3.383-15.186l3.385,15.186h4.446l4.629-19.75H28.696z"/><path fill="#4e7ab5" d="M76,76H24c-2.206,0-4-1.794-4-4V59.5h1V72c0,1.654,1.346,3,3,3h52c1.654,0,3-1.346,3-3V8	c0-1.654-1.346-3-3-3H24c-1.654,0-3,1.346-3,3v12.5h-1V8c0-2.206,1.794-4,4-4h52c2.206,0,4,1.794,4,4v64C80,74.206,78.206,76,76,76z"/><rect width="40" height="1" x="39.5" y="39.5" fill="#4e7ab5"/><rect width="40" height="1" x="39.5" y="57" fill="#4e7ab5"/><rect width="40" height="1" x="39.5" y="22" fill="#4e7ab5"/></svg>